<svg xmlns="http://www.w3.org/2000/svg" xmlns:xlink="http://www.w3.org/1999/xlink" zoomAndPan="magnify" preserveAspectRatio="xMidYMid meet" version="1.0" viewBox="37.5 50.52 317.39 189.48"><defs><clipPath id="991f44433a"><path d="M 37.5 50.519531 L 302.25 50.519531 L 302.25 221.519531 L 37.5 221.519531 Z M 37.5 50.519531 " clip-rule="nonzero"/></clipPath><clipPath id="bf443237ed"><path d="M 153 121.371094 L 354.894531 121.371094 L 354.894531 240 L 153 240 Z M 153 121.371094 " clip-rule="nonzero"/></clipPath></defs><g clip-path="url(#991f44433a)"><path fill="#99aab5" d="M 302.707031 136.019531 C 302.707031 161.691406 243.375 221.480469 170.199219 221.480469 C 97.019531 221.480469 37.695312 169.03125 37.695312 136.019531 C 37.695312 110.28125 97.027344 50.558594 170.199219 50.558594 C 243.375 50.558594 302.707031 110.273438 302.707031 136.019531 Z M 302.707031 136.019531 " fill-opacity="1" fill-rule="nonzero"/></g><path fill="#f5f8fa" d="M 293.066406 136.019531 C 293.066406 158.582031 238.042969 211.125 170.191406 211.125 C 102.335938 211.125 47.328125 165.015625 47.328125 136.019531 C 47.328125 113.394531 102.335938 60.921875 170.191406 60.921875 C 238.042969 60.914062 293.066406 113.394531 293.066406 136.019531 Z M 293.066406 136.019531 " fill-opacity="1" fill-rule="nonzero"/><path fill="#0dcaf0" d="M 235.929688 136.019531 C 235.929688 137.097656 235.902344 138.171875 235.851562 139.246094 C 235.796875 140.320312 235.71875 141.390625 235.613281 142.460938 C 235.507812 143.53125 235.378906 144.597656 235.21875 145.664062 C 235.0625 146.726562 234.878906 147.785156 234.667969 148.839844 C 234.460938 149.894531 234.222656 150.945312 233.960938 151.988281 C 233.703125 153.03125 233.414062 154.066406 233.101562 155.09375 C 232.789062 156.125 232.453125 157.144531 232.09375 158.15625 C 231.730469 159.171875 231.34375 160.171875 230.933594 161.167969 C 230.519531 162.160156 230.085938 163.144531 229.625 164.117188 C 229.167969 165.089844 228.683594 166.046875 228.175781 166.996094 C 227.671875 167.945312 227.140625 168.878906 226.585938 169.804688 C 226.035156 170.726562 225.460938 171.632812 224.863281 172.527344 C 224.265625 173.421875 223.648438 174.300781 223.007812 175.164062 C 222.367188 176.027344 221.707031 176.875 221.023438 177.707031 C 220.34375 178.539062 219.640625 179.351562 218.917969 180.148438 C 218.199219 180.945312 217.457031 181.726562 216.695312 182.484375 C 215.9375 183.246094 215.160156 183.988281 214.363281 184.710938 C 213.566406 185.433594 212.753906 186.132812 211.921875 186.816406 C 211.089844 187.5 210.246094 188.160156 209.382812 188.800781 C 208.519531 189.441406 207.640625 190.058594 206.746094 190.65625 C 205.851562 191.253906 204.945312 191.832031 204.023438 192.382812 C 203.101562 192.9375 202.167969 193.464844 201.21875 193.972656 C 200.269531 194.480469 199.3125 194.964844 198.339844 195.421875 C 197.367188 195.882812 196.386719 196.320312 195.394531 196.730469 C 194.398438 197.140625 193.398438 197.527344 192.386719 197.890625 C 191.375 198.253906 190.355469 198.589844 189.324219 198.902344 C 188.296875 199.214844 187.261719 199.5 186.21875 199.761719 C 185.175781 200.023438 184.128906 200.261719 183.074219 200.46875 C 182.019531 200.679688 180.960938 200.863281 179.898438 201.019531 C 178.835938 201.179688 177.769531 201.3125 176.699219 201.417969 C 175.628906 201.523438 174.558594 201.601562 173.484375 201.652344 C 172.410156 201.707031 171.335938 201.734375 170.261719 201.734375 C 169.1875 201.734375 168.113281 201.707031 167.042969 201.652344 C 165.96875 201.601562 164.894531 201.523438 163.828125 201.417969 C 162.757812 201.3125 161.691406 201.179688 160.628906 201.019531 C 159.566406 200.863281 158.507812 200.679688 157.453125 200.46875 C 156.398438 200.261719 155.351562 200.023438 154.308594 199.761719 C 153.265625 199.5 152.230469 199.214844 151.199219 198.902344 C 150.171875 198.589844 149.152344 198.253906 148.140625 197.890625 C 147.128906 197.527344 146.125 197.140625 145.132812 196.730469 C 144.140625 196.320312 143.160156 195.882812 142.1875 195.421875 C 141.214844 194.964844 140.253906 194.480469 139.308594 193.972656 C 138.359375 193.464844 137.425781 192.9375 136.503906 192.382812 C 135.582031 191.832031 134.675781 191.253906 133.78125 190.65625 C 132.886719 190.058594 132.007812 189.441406 131.144531 188.800781 C 130.28125 188.160156 129.433594 187.5 128.605469 186.816406 C 127.773438 186.132812 126.960938 185.433594 126.164062 184.710938 C 125.367188 183.988281 124.589844 183.246094 123.828125 182.484375 C 123.070312 181.726562 122.328125 180.945312 121.605469 180.148438 C 120.886719 179.351562 120.183594 178.539062 119.5 177.707031 C 118.820312 176.875 118.160156 176.027344 117.519531 175.164062 C 116.878906 174.300781 116.261719 173.421875 115.664062 172.527344 C 115.066406 171.632812 114.492188 170.726562 113.9375 169.804688 C 113.386719 168.878906 112.855469 167.945312 112.351562 166.996094 C 111.84375 166.046875 111.359375 165.089844 110.902344 164.117188 C 110.441406 163.144531 110.003906 162.160156 109.59375 161.167969 C 109.183594 160.171875 108.796875 159.171875 108.433594 158.15625 C 108.074219 157.144531 107.734375 156.125 107.421875 155.09375 C 107.113281 154.066406 106.824219 153.03125 106.5625 151.988281 C 106.300781 150.945312 106.066406 149.894531 105.859375 148.839844 C 105.648438 147.785156 105.464844 146.726562 105.304688 145.664062 C 105.148438 144.597656 105.015625 143.53125 104.910156 142.460938 C 104.808594 141.390625 104.726562 140.320312 104.675781 139.246094 C 104.621094 138.171875 104.597656 137.097656 104.597656 136.019531 C 104.597656 134.945312 104.621094 133.871094 104.675781 132.796875 C 104.726562 131.722656 104.808594 130.648438 104.910156 129.578125 C 105.015625 128.507812 105.148438 127.441406 105.304688 126.378906 C 105.464844 125.316406 105.648438 124.253906 105.859375 123.199219 C 106.066406 122.144531 106.300781 121.097656 106.5625 120.054688 C 106.824219 119.011719 107.113281 117.972656 107.421875 116.945312 C 107.734375 115.914062 108.074219 114.894531 108.433594 113.882812 C 108.796875 112.871094 109.183594 111.867188 109.59375 110.875 C 110.003906 109.878906 110.441406 108.898438 110.902344 107.925781 C 111.359375 106.953125 111.84375 105.992188 112.351562 105.042969 C 112.855469 104.09375 113.386719 103.160156 113.9375 102.238281 C 114.492188 101.316406 115.066406 100.40625 115.664062 99.511719 C 116.261719 98.617188 116.878906 97.738281 117.519531 96.875 C 118.160156 96.011719 118.820312 95.164062 119.5 94.332031 C 120.183594 93.5 120.886719 92.6875 121.605469 91.890625 C 122.328125 91.09375 123.070312 90.316406 123.828125 89.554688 C 124.589844 88.792969 125.367188 88.054688 126.164062 87.332031 C 126.960938 86.609375 127.773438 85.90625 128.605469 85.222656 C 129.433594 84.542969 130.28125 83.878906 131.144531 83.238281 C 132.007812 82.597656 132.886719 81.980469 133.78125 81.382812 C 134.675781 80.785156 135.582031 80.210938 136.503906 79.65625 C 137.425781 79.105469 138.359375 78.574219 139.308594 78.066406 C 140.253906 77.558594 141.214844 77.078125 142.1875 76.617188 C 143.160156 76.15625 144.140625 75.722656 145.132812 75.308594 C 146.125 74.898438 147.128906 74.511719 148.140625 74.148438 C 149.152344 73.785156 150.171875 73.449219 151.199219 73.136719 C 152.230469 72.824219 153.265625 72.539062 154.308594 72.277344 C 155.351562 72.015625 156.398438 71.78125 157.453125 71.570312 C 158.507812 71.359375 159.566406 71.175781 160.628906 71.019531 C 161.691406 70.863281 162.757812 70.730469 163.828125 70.625 C 164.894531 70.519531 165.96875 70.441406 167.042969 70.386719 C 168.113281 70.335938 169.1875 70.308594 170.261719 70.308594 C 171.335938 70.308594 172.410156 70.335938 173.484375 70.386719 C 174.558594 70.441406 175.628906 70.519531 176.699219 70.625 C 177.769531 70.730469 178.835938 70.863281 179.898438 71.019531 C 180.960938 71.175781 182.019531 71.359375 183.074219 71.570312 C 184.128906 71.78125 185.175781 72.015625 186.21875 72.277344 C 187.261719 72.539062 188.296875 72.824219 189.324219 73.136719 C 190.355469 73.449219 191.375 73.785156 192.386719 74.148438 C 193.398438 74.511719 194.398438 74.898438 195.394531 75.308594 C 196.386719 75.722656 197.367188 76.15625 198.339844 76.617188 C 199.3125 77.078125 200.269531 77.558594 201.21875 78.066406 C 202.167969 78.574219 203.101562 79.105469 204.023438 79.65625 C 204.945312 80.210938 205.851562 80.785156 206.746094 81.382812 C 207.640625 81.980469 208.519531 82.597656 209.382812 83.238281 C 210.246094 83.878906 211.089844 84.542969 211.921875 85.222656 C 212.753906 85.90625 213.566406 86.609375 214.363281 87.332031 C 215.160156 88.054688 215.9375 88.792969 216.695312 89.554688 C 217.457031 90.316406 218.199219 91.09375 218.917969 91.890625 C 219.640625 92.6875 220.34375 93.5 221.023438 94.332031 C 221.707031 95.164062 222.367188 96.011719 223.007812 96.875 C 223.648438 97.738281 224.265625 98.617188 224.863281 99.511719 C 225.460938 100.40625 226.035156 101.316406 226.585938 102.238281 C 227.140625 103.160156 227.671875 104.09375 228.175781 105.042969 C 228.683594 105.992188 229.167969 106.953125 229.625 107.925781 C 230.085938 108.898438 230.519531 109.878906 230.933594 110.875 C 231.34375 111.867188 231.730469 112.871094 232.09375 113.882812 C 232.453125 114.894531 232.789062 115.914062 233.101562 116.945312 C 233.414062 117.972656 233.703125 119.011719 233.960938 120.054688 C 234.222656 121.097656 234.460938 122.144531 234.667969 123.199219 C 234.878906 124.253906 235.0625 125.316406 235.21875 126.378906 C 235.378906 127.441406 235.507812 128.507812 235.613281 129.578125 C 235.71875 130.648438 235.796875 131.722656 235.851562 132.796875 C 235.902344 133.871094 235.929688 134.945312 235.929688 136.019531 Z M 235.929688 136.019531 " fill-opacity="1" fill-rule="nonzero"/><path fill="#292f33" d="M 206.816406 136.019531 C 206.816406 137.21875 206.757812 138.414062 206.640625 139.605469 C 206.523438 140.796875 206.347656 141.980469 206.113281 143.15625 C 205.878906 144.332031 205.589844 145.492188 205.242188 146.636719 C 204.894531 147.785156 204.492188 148.910156 204.035156 150.019531 C 203.574219 151.125 203.0625 152.207031 202.5 153.261719 C 201.933594 154.320312 201.320312 155.34375 200.65625 156.339844 C 199.992188 157.335938 199.277344 158.300781 198.519531 159.226562 C 197.757812 160.152344 196.957031 161.039062 196.109375 161.882812 C 195.261719 162.730469 194.378906 163.535156 193.453125 164.296875 C 192.527344 165.054688 191.566406 165.769531 190.570312 166.433594 C 189.574219 167.097656 188.550781 167.714844 187.492188 168.277344 C 186.4375 168.84375 185.355469 169.355469 184.25 169.8125 C 183.144531 170.273438 182.019531 170.675781 180.875 171.023438 C 179.726562 171.371094 178.570312 171.660156 177.394531 171.894531 C 176.21875 172.128906 175.039062 172.304688 173.847656 172.421875 C 172.65625 172.539062 171.460938 172.597656 170.261719 172.597656 C 169.066406 172.597656 167.871094 172.539062 166.679688 172.421875 C 165.488281 172.304688 164.304688 172.128906 163.132812 171.894531 C 161.957031 171.660156 160.796875 171.371094 159.652344 171.023438 C 158.507812 170.675781 157.382812 170.273438 156.273438 169.8125 C 155.167969 169.355469 154.089844 168.84375 153.03125 168.277344 C 151.976562 167.714844 150.949219 167.097656 149.957031 166.433594 C 148.960938 165.769531 148 165.054688 147.074219 164.296875 C 146.148438 163.535156 145.261719 162.730469 144.417969 161.882812 C 143.570312 161.039062 142.765625 160.152344 142.007812 159.226562 C 141.25 158.300781 140.535156 157.335938 139.871094 156.339844 C 139.207031 155.34375 138.589844 154.320312 138.027344 153.261719 C 137.460938 152.207031 136.949219 151.125 136.492188 150.019531 C 136.035156 148.910156 135.632812 147.785156 135.285156 146.636719 C 134.9375 145.492188 134.648438 144.332031 134.414062 143.15625 C 134.179688 141.980469 134.003906 140.796875 133.886719 139.605469 C 133.769531 138.414062 133.710938 137.21875 133.710938 136.019531 C 133.710938 134.824219 133.769531 133.628906 133.886719 132.433594 C 134.003906 131.242188 134.179688 130.058594 134.414062 128.882812 C 134.648438 127.710938 134.9375 126.546875 135.285156 125.402344 C 135.632812 124.257812 136.035156 123.128906 136.492188 122.023438 C 136.949219 120.914062 137.460938 119.835938 138.027344 118.777344 C 138.589844 117.722656 139.207031 116.695312 139.871094 115.699219 C 140.535156 114.703125 141.25 113.742188 142.007812 112.816406 C 142.765625 111.890625 143.570312 111.003906 144.417969 110.15625 C 145.261719 109.308594 146.148438 108.503906 147.074219 107.746094 C 148 106.984375 148.960938 106.273438 149.957031 105.605469 C 150.949219 104.941406 151.976562 104.328125 153.03125 103.761719 C 154.089844 103.195312 155.167969 102.683594 156.273438 102.226562 C 157.382812 101.769531 158.507812 101.367188 159.652344 101.019531 C 160.796875 100.671875 161.957031 100.378906 163.132812 100.144531 C 164.304688 99.910156 165.488281 99.734375 166.679688 99.617188 C 167.871094 99.5 169.066406 99.441406 170.261719 99.441406 C 171.460938 99.441406 172.65625 99.5 173.847656 99.617188 C 175.039062 99.734375 176.21875 99.910156 177.394531 100.144531 C 178.570312 100.378906 179.726562 100.671875 180.875 101.019531 C 182.019531 101.367188 183.144531 101.769531 184.25 102.226562 C 185.355469 102.683594 186.4375 103.195312 187.492188 103.761719 C 188.550781 104.328125 189.574219 104.941406 190.570312 105.605469 C 191.566406 106.273438 192.527344 106.984375 193.453125 107.746094 C 194.378906 108.503906 195.261719 109.308594 196.109375 110.15625 C 196.957031 111.003906 197.757812 111.890625 198.519531 112.816406 C 199.277344 113.742188 199.992188 114.703125 200.65625 115.699219 C 201.320312 116.695312 201.933594 117.722656 202.5 118.777344 C 203.0625 119.835938 203.574219 120.914062 204.035156 122.023438 C 204.492188 123.128906 204.894531 124.257812 205.242188 125.402344 C 205.589844 126.546875 205.878906 127.710938 206.113281 128.882812 C 206.347656 130.058594 206.523438 131.242188 206.640625 132.433594 C 206.757812 133.628906 206.816406 134.824219 206.816406 136.019531 Z M 206.816406 136.019531 " fill-opacity="1" fill-rule="nonzero"/><path fill="#f5f8fa" d="M 209.082031 112.710938 C 209.082031 113.734375 208.984375 114.742188 208.785156 115.742188 C 208.585938 116.746094 208.289062 117.714844 207.902344 118.660156 C 207.511719 119.601562 207.03125 120.496094 206.464844 121.34375 C 205.898438 122.195312 205.253906 122.980469 204.535156 123.699219 C 203.8125 124.421875 203.03125 125.066406 202.183594 125.632812 C 201.335938 126.199219 200.4375 126.679688 199.496094 127.066406 C 198.554688 127.457031 197.585938 127.753906 196.585938 127.953125 C 195.585938 128.152344 194.574219 128.25 193.554688 128.25 C 192.535156 128.25 191.527344 128.152344 190.527344 127.953125 C 189.527344 127.753906 188.554688 127.457031 187.613281 127.066406 C 186.671875 126.679688 185.777344 126.199219 184.929688 125.632812 C 184.082031 125.066406 183.296875 124.421875 182.574219 123.699219 C 181.855469 122.980469 181.210938 122.195312 180.644531 121.34375 C 180.078125 120.496094 179.597656 119.601562 179.210938 118.660156 C 178.820312 117.714844 178.523438 116.746094 178.324219 115.742188 C 178.125 114.742188 178.027344 113.734375 178.027344 112.710938 C 178.027344 111.691406 178.125 110.683594 178.324219 109.679688 C 178.523438 108.679688 178.820312 107.707031 179.210938 106.765625 C 179.597656 105.824219 180.078125 104.929688 180.644531 104.078125 C 181.210938 103.230469 181.855469 102.445312 182.574219 101.726562 C 183.296875 101.003906 184.082031 100.359375 184.929688 99.792969 C 185.777344 99.226562 186.671875 98.746094 187.613281 98.355469 C 188.554688 97.964844 189.527344 97.671875 190.527344 97.472656 C 191.527344 97.273438 192.535156 97.175781 193.554688 97.175781 C 194.574219 97.175781 195.585938 97.273438 196.585938 97.472656 C 197.585938 97.671875 198.554688 97.964844 199.496094 98.355469 C 200.4375 98.746094 201.335938 99.226562 202.183594 99.792969 C 203.03125 100.359375 203.8125 101.003906 204.535156 101.726562 C 205.253906 102.445312 205.898438 103.230469 206.464844 104.078125 C 207.03125 104.929688 207.511719 105.824219 207.902344 106.765625 C 208.289062 107.707031 208.585938 108.679688 208.785156 109.679688 C 208.984375 110.683594 209.082031 111.691406 209.082031 112.710938 Z M 209.082031 112.710938 " fill-opacity="1" fill-rule="nonzero"/><g clip-path="url(#bf443237ed)"><path fill="#99aab5" d="M 338.09375 150.421875 L 272.632812 215.898438 C 269.351562 219.179688 264.035156 219.179688 260.753906 215.898438 L 224.691406 179.828125 L 167.632812 236.90625 C 164.351562 240.1875 159.03125 240.1875 155.753906 236.90625 C 152.472656 233.625 152.472656 228.304688 155.753906 225.023438 L 218.753906 162.003906 C 222.035156 158.722656 227.351562 158.722656 230.632812 162.003906 L 266.695312 198.074219 L 326.214844 138.539062 L 296.09375 138.539062 C 291.457031 138.539062 287.695312 134.773438 287.695312 130.132812 C 287.695312 125.496094 291.457031 121.730469 296.09375 121.730469 L 346.496094 121.730469 C 351.132812 121.730469 354.894531 125.496094 354.894531 130.132812 L 354.894531 180.550781 C 354.894531 185.191406 351.132812 188.953125 346.496094 188.953125 C 341.855469 188.953125 338.09375 185.191406 338.09375 180.550781 Z M 338.09375 150.421875 " fill-opacity="1" fill-rule="nonzero"/></g></svg>